<?xml version="1.0" encoding="UTF-8" standalone="no"?>
<!DOCTYPE svg PUBLIC "-//W3C//DTD SVG 1.1//EN" "http://www.w3.org/Graphics/SVG/1.1/DTD/svg11.dtd">
<svg version="1.1" xmlns="http://www.w3.org/2000/svg" xmlns:xlink="http://www.w3.org/1999/xlink" preserveAspectRatio="xMidYMid meet" viewBox="371.6948174113226 57.871402076267124 257.77417111783126 185.79921876679083" width="253.77" height="181.8"><defs><path d="M495.04 58.9L495.91 58.95L496.77 59.03L497.63 59.13L498.49 59.25L499.34 59.39L500.18 59.56L501.02 59.75L501.86 59.97L502.68 60.2L503.51 60.46L504.32 60.74L505.13 61.04L505.93 61.37L506.72 61.71L507.5 62.08L508.27 62.47L509.03 62.88L509.78 63.32L510.52 63.77L511.25 64.25L511.96 64.74L512.67 65.26L513.36 65.8L514.04 66.35L514.7 66.93L515.35 67.53L515.98 68.15L516.6 68.79L517.21 69.44L523.93 76.97L528.92 72.29L529.36 71.89L529.82 71.5L530.29 71.13L530.77 70.77L531.26 70.44L531.75 70.12L532.26 69.82L532.77 69.54L533.29 69.27L533.82 69.03L534.36 68.8L534.9 68.59L535.44 68.4L535.99 68.22L536.55 68.07L537.11 67.93L537.67 67.81L538.24 67.71L538.8 67.63L539.38 67.56L539.95 67.52L540.52 67.49L541.1 67.48L541.67 67.49L542.25 67.52L542.82 67.57L543.4 67.63L543.97 67.72L544.54 67.82L545.11 67.94L545.67 68.08L546.23 68.24L546.79 68.42L547.34 68.62L547.89 68.84L548.43 69.08L548.97 69.33L549.5 69.61L550.03 69.9L550.54 70.21L556.4 73.9L556.48 73.92L557.12 74.09L557.75 74.27L558.37 74.47L559 74.68L559.62 74.91L560.23 75.15L560.84 75.4L561.45 75.67L562.05 75.96L562.65 76.26L562.9 76.39L574.87 71.98L575.71 71.69L576.56 71.42L577.41 71.18L578.26 70.97L579.12 70.79L579.98 70.63L580.84 70.5L581.7 70.4L582.57 70.32L583.43 70.28L584.29 70.25L585.15 70.26L586.01 70.29L586.86 70.35L587.72 70.43L588.56 70.54L589.41 70.67L590.25 70.84L591.08 71.02L591.91 71.23L592.73 71.47L593.54 71.73L594.35 72.01L595.14 72.32L595.93 72.66L596.71 73.02L597.48 73.4L598.23 73.81L598.98 74.24L599.71 74.69L600.43 75.17L601.14 75.67L601.83 76.19L602.51 76.74L603.17 77.31L603.82 77.9L604.45 78.51L605.06 79.15L605.66 79.81L606.24 80.49L613.8 89.68L614.16 90.12L614.5 90.58L614.82 91.05L615.13 91.52L615.42 92L615.69 92.48L615.95 92.98L616.19 93.48L616.41 93.99L616.62 94.5L616.81 95.01L616.98 95.54L617.14 96.06L617.28 96.59L617.41 97.12L617.51 97.66L617.61 98.2L617.68 98.74L617.74 99.28L617.78 99.83L617.8 100.37L617.81 100.92L617.79 101.46L617.77 102.01L617.72 102.55L617.66 103.1L617.58 103.64L617.49 104.18L617.37 104.72L617.24 105.25L617.1 105.79L616.93 106.32L616.75 106.84L616.55 107.36L616.34 107.88L616.11 108.39L615.86 108.89L615.59 109.39L615.3 109.88L615 110.37L610.58 117.23L618.13 123.64L618.72 124.16L619.29 124.69L619.83 125.24L620.36 125.8L620.87 126.38L621.35 126.97L621.82 127.58L622.26 128.2L622.68 128.82L623.08 129.47L623.46 130.12L623.82 130.78L624.15 131.45L624.46 132.13L624.75 132.82L625.02 133.52L625.27 134.23L625.49 134.94L625.69 135.66L625.87 136.38L626.03 137.11L626.16 137.85L626.27 138.59L626.35 139.33L626.42 140.08L626.45 140.82L626.47 141.57L626.46 142.32L626.43 143.08L626.37 143.83L626.29 144.58L626.18 145.33L626.05 146.08L625.9 146.82L625.72 147.57L625.52 148.31L625.29 149.04L625.03 149.78L624.75 150.5L624.47 151.18L624.4 151.34L624.29 151.55L624.18 151.77L624.07 151.98L623.96 152.19L623.84 152.4L623.71 152.6L623.58 152.8L623.45 153L623.32 153.2L623.18 153.39L623.04 153.58L622.89 153.77L622.74 153.95L622.59 154.13L622.43 154.31L622.27 154.48L622.11 154.65L621.94 154.82L621.77 154.99L621.6 155.15L621.42 155.31L621.24 155.46L621.06 155.61L620.87 155.76L620.68 155.9L620.49 156.04L620.3 156.18L620.1 156.31L619.9 156.44L619.7 156.57L619.49 156.69L619.29 156.81L619.08 156.92L618.86 157.03L618.65 157.14L618.43 157.24L618.21 157.33L617.99 157.43L617.76 157.52L606.74 161.74L613.39 169.3L613.94 169.95L614.47 170.62L614.97 171.3L615.44 171.99L615.89 172.69L616.32 173.41L616.71 174.14L617.08 174.88L617.43 175.62L617.75 176.38L618.04 177.15L618.3 177.92L618.54 178.7L618.76 179.48L618.94 180.28L619.1 181.07L619.24 181.87L619.35 182.68L619.43 183.48L619.48 184.29L619.51 185.1L619.51 185.91L619.49 186.72L619.44 187.53L619.36 188.34L619.25 189.15L619.12 189.95L618.96 190.75L618.77 191.55L618.56 192.34L618.32 193.12L618.06 193.9L617.76 194.68L617.44 195.44L617.09 196.2L616.72 196.94L616.32 197.68L615.89 198.41L615.43 199.12L614.95 199.83L614.13 200.97L613.66 201.62L613.16 202.25L612.66 202.87L612.13 203.47L611.6 204.06L611.05 204.63L610.48 205.18L609.9 205.72L609.31 206.24L608.71 206.74L608.09 207.22L607.46 207.69L606.82 208.14L606.17 208.57L605.51 208.99L604.84 209.38L604.16 209.76L603.47 210.12L602.77 210.46L602.06 210.78L601.34 211.09L600.62 211.37L599.88 211.63L599.14 211.88L598.4 212.11L597.64 212.31L596.89 212.5L596.12 212.66L595.35 212.81L594.58 212.93L593.8 213.04L593.02 213.12L592.23 213.18L591.44 213.22L590.65 213.24L589.85 213.24L589.06 213.22L588.26 213.17L587.46 213.11L586.66 213.02L564.11 210.19L567.66 219.43L551.65 234.44L551.17 234.88L550.67 235.3L550.17 235.7L549.65 236.08L549.12 236.45L548.58 236.79L548.04 237.11L547.48 237.42L546.92 237.71L546.35 237.97L545.77 238.22L545.19 238.45L544.6 238.65L544 238.84L543.4 239.01L542.79 239.16L542.18 239.29L541.57 239.4L540.96 239.49L540.34 239.56L539.72 239.61L539.1 239.64L538.47 239.65L537.85 239.63L537.23 239.6L536.61 239.55L535.99 239.48L535.37 239.39L534.75 239.28L534.14 239.15L533.53 238.99L532.92 238.82L532.32 238.63L531.72 238.41L531.12 238.18L530.54 237.92L529.96 237.64L529.45 237.38L528.99 237.53L528.14 237.78L527.28 238.01L526.42 238.2L525.56 238.38L524.69 238.53L523.83 238.65L522.96 238.75L522.09 238.82L521.22 238.87L520.35 238.89L519.48 238.89L518.61 238.87L517.74 238.82L516.87 238.74L516.01 238.64L515.15 238.52L514.29 238.37L513.44 238.2L512.59 238L511.75 237.78L510.91 237.53L510.08 237.27L509.26 236.97L508.45 236.66L507.64 236.31L506.84 235.95L506.05 235.56L505.27 235.15L504.98 234.99L498.97 237.89L497.95 238.36L496.93 238.78L495.89 239.16L494.85 239.49L493.8 239.79L492.75 240.04L491.7 240.24L490.64 240.41L489.58 240.54L488.52 240.62L487.47 240.67L486.41 240.67L485.36 240.63L484.31 240.56L483.27 240.44L482.23 240.29L481.2 240.09L480.18 239.86L479.17 239.6L478.17 239.29L477.18 238.95L476.31 238.61L476.09 238.68L475.86 238.74L472.31 239.69L471.51 239.89L470.71 240.07L469.9 240.22L469.1 240.35L468.29 240.46L467.49 240.55L466.68 240.61L465.87 240.65L465.07 240.67L464.26 240.67L463.46 240.64L462.66 240.59L461.87 240.53L461.07 240.43L460.28 240.32L459.5 240.19L458.72 240.03L457.94 239.86L457.17 239.66L456.4 239.44L455.64 239.2L454.89 238.94L454.14 238.66L453.41 238.36L452.68 238.04L451.95 237.7L451.24 237.34L450.54 236.96L449.84 236.56L449.16 236.14L448.49 235.7L447.82 235.24L447.17 234.77L446.54 234.27L445.91 233.76L445.3 233.22L444.7 232.67L444.11 232.1L443.54 231.51L442.98 230.9L434.21 221.07L423.92 225.45L423.34 225.68L422.77 225.91L422.19 226.11L421.61 226.31L421.03 226.49L420.44 226.66L419.85 226.81L419.26 226.95L418.66 227.08L418.06 227.19L417.47 227.29L416.87 227.37L416.27 227.44L415.66 227.5L415.06 227.55L414.46 227.58L413.86 227.6L413.25 227.6L412.65 227.59L412.05 227.57L411.44 227.54L410.84 227.49L410.24 227.42L409.64 227.35L409.05 227.26L408.45 227.15L407.86 227.04L407.27 226.91L406.68 226.77L406.09 226.61L405.51 226.44L404.93 226.26L404.36 226.06L403.78 225.85L403.21 225.63L402.65 225.39L402.09 225.14L401.53 224.88L400.98 224.6L400.44 224.31L384.62 215.7L383.75 215.2L382.91 214.67L382.09 214.1L381.31 213.51L380.56 212.89L379.85 212.24L379.16 211.57L378.51 210.87L377.89 210.15L377.31 209.4L376.75 208.64L376.23 207.85L375.75 207.05L375.3 206.23L374.89 205.39L374.51 204.54L374.16 203.68L373.85 202.8L373.58 201.91L373.34 201.01L373.14 200.1L372.98 199.19L372.85 198.26L372.76 197.34L372.71 196.41L372.69 195.47L372.72 194.54L372.78 193.6L372.88 192.67L373.02 191.73L373.21 190.8L373.43 189.88L373.69 188.96L373.99 188.05L374.33 187.14L374.71 186.25L375.13 185.36L375.6 184.49L376.1 183.63L376.65 182.78L387.55 166.74L379.23 154.19L378.92 153.7L378.63 153.2L378.36 152.69L378.11 152.17L377.88 151.65L377.67 151.12L377.49 150.59L377.33 150.05L377.19 149.51L377.06 148.97L376.96 148.42L376.88 147.88L376.83 147.33L376.79 146.78L376.77 146.23L376.77 145.68L376.8 145.13L376.84 144.59L376.9 144.04L376.99 143.5L377.09 142.96L377.21 142.43L377.36 141.9L377.52 141.37L377.7 140.86L377.9 140.34L378.12 139.84L378.36 139.34L378.62 138.85L378.9 138.37L379.2 137.9L379.51 137.44L379.85 136.99L380.2 136.55L380.57 136.12L380.96 135.71L381.37 135.31L381.79 134.92L382.24 134.54L382.7 134.18L400.51 120.86L397.97 94.43L397.9 93.56L397.86 92.71L397.84 91.85L397.86 91L397.89 90.15L397.96 89.31L398.05 88.47L398.16 87.63L398.3 86.81L398.46 85.99L398.65 85.17L398.87 84.37L399.1 83.57L399.36 82.78L399.65 82L399.95 81.23L400.28 80.47L400.64 79.72L401.01 78.98L401.41 78.26L401.82 77.54L402.26 76.84L402.72 76.15L403.21 75.48L403.71 74.82L404.23 74.18L404.77 73.54L405.33 72.93L405.91 72.33L406.51 71.75L407.13 71.19L407.77 70.64L408.42 70.11L409.09 69.61L409.78 69.12L410.49 68.65L411.21 68.2L411.96 67.77L412.71 67.36L413.49 66.98L419.64 64.03L420.53 63.62L421.42 63.24L422.32 62.89L423.23 62.57L424.15 62.27L425.07 62L425.99 61.75L426.92 61.54L427.86 61.35L428.79 61.19L429.73 61.06L430.67 60.95L431.61 60.87L432.56 60.82L433.5 60.79L434.44 60.79L435.38 60.82L436.32 60.88L437.26 60.96L438.19 61.07L439.12 61.2L440.05 61.36L440.97 61.55L441.89 61.76L442.8 62L443.7 62.27L444.6 62.56L445.49 62.87L446.37 63.22L447.25 63.58L448.11 63.98L448.96 64.4L449.81 64.84L450.64 65.32L451.46 65.81L452.27 66.33L453.07 66.88L453.85 67.45L454.62 68.05L455.37 68.67L467.33 78.83L473.63 67.25L473.76 67.01L473.9 66.79L474.04 66.56L474.18 66.34L474.32 66.12L474.47 65.91L474.63 65.69L474.79 65.49L474.95 65.28L475.12 65.08L475.29 64.88L475.46 64.69L475.64 64.5L475.82 64.31L476.01 64.13L476.2 63.95L476.39 63.78L476.59 63.61L476.79 63.44L476.99 63.28L477.19 63.12L477.4 62.97L477.61 62.82L477.83 62.67L478.05 62.53L478.27 62.39L478.49 62.26L478.72 62.13L478.95 62.01L479.18 61.89L479.42 61.77L479.65 61.66L479.89 61.56L480.14 61.46L480.38 61.36L480.63 61.27L480.88 61.18L481.13 61.1L481.38 61.03L481.63 60.96L485.47 59.94L486.34 59.72L487.21 59.53L488.08 59.36L488.95 59.22L489.82 59.1L490.69 59L491.56 58.94L492.44 58.89L493.31 58.87L494.18 58.88L495.04 58.9ZM624.47 151.18L624.5 151.12L624.45 151.23L624.47 151.18Z" id="csuvJpQ1B"></path></defs><g><g><use xlink:href="#csuvJpQ1B" opacity="1" fill="#ffffff" fill-opacity="1"></use><g><use xlink:href="#csuvJpQ1B" opacity="1" fill-opacity="0" stroke="#dee9fe" stroke-width="0" stroke-opacity="1"></use></g></g></g></svg>