<?xml version="1.0" encoding="UTF-8" standalone="no"?>
<!DOCTYPE svg PUBLIC "-//W3C//DTD SVG 1.1//EN" "http://www.w3.org/Graphics/SVG/1.1/DTD/svg11.dtd">
<svg version="1.1" xmlns="http://www.w3.org/2000/svg" xmlns:xlink="http://www.w3.org/1999/xlink" preserveAspectRatio="xMidYMid meet" viewBox="379.8632925446201 54.552999010785165 263.8385209368429 198.4004074535265" width="259.84" height="194.4"><defs><path d="M482.32 55.6L482.94 55.65L483.55 55.73L484.17 55.82L484.78 55.93L485.39 56.07L486 56.22L486.6 56.39L487.19 56.59L487.78 56.8L488.37 57.03L488.94 57.28L489.51 57.55L490.08 57.84L490.63 58.15L491.18 58.48L491.71 58.83L492.24 59.2L492.7 59.55L493.18 59.47L494.06 59.37L494.94 59.29L495.82 59.23L496.7 59.21L497.58 59.2L498.45 59.22L499.33 59.27L500.2 59.34L501.06 59.44L501.93 59.56L502.78 59.7L503.64 59.87L504.48 60.07L505.33 60.28L506.16 60.52L506.99 60.79L507.81 61.08L508.62 61.39L509.42 61.72L510.22 62.08L511 62.46L511.78 62.86L512.54 63.29L513.29 63.73L514.03 64.2L514.76 64.7L515.47 65.21L516.17 65.74L516.43 65.95L522.84 64.09L523.92 63.79L525 63.55L526.09 63.34L527.17 63.18L528.25 63.07L529.33 62.99L530.4 62.96L531.47 62.97L532.54 63.02L533.6 63.12L534.65 63.25L535.69 63.42L536.72 63.63L537.74 63.88L538.75 64.16L539.75 64.49L540.73 64.85L541.7 65.24L542.65 65.67L543.59 66.14L544.5 66.64L545.3 67.12L545.53 67.09L545.78 67.06L549.43 66.72L550.25 66.65L551.08 66.61L551.89 66.59L552.71 66.59L553.52 66.62L554.33 66.67L555.14 66.74L555.94 66.83L556.74 66.95L557.53 67.08L558.31 67.24L559.1 67.42L559.87 67.62L560.64 67.84L561.4 68.08L562.15 68.34L562.9 68.63L563.63 68.93L564.36 69.25L565.08 69.59L565.79 69.95L566.49 70.33L567.18 70.73L567.86 71.15L568.52 71.59L569.18 72.04L569.82 72.52L570.45 73.01L571.07 73.52L571.68 74.04L572.27 74.59L572.85 75.15L573.41 75.73L573.96 76.32L574.49 76.93L575 77.56L575.51 78.21L575.99 78.87L576.46 79.54L576.91 80.23L583.93 91.38L594.81 88.76L595.41 88.62L596.01 88.5L596.62 88.39L597.22 88.3L597.83 88.21L598.44 88.15L599.04 88.09L599.65 88.05L600.26 88.03L600.86 88.01L601.47 88.02L602.08 88.03L602.68 88.06L603.28 88.1L603.88 88.16L604.48 88.22L605.08 88.31L605.68 88.4L606.27 88.51L606.86 88.63L607.45 88.77L608.03 88.91L608.62 89.07L609.19 89.25L609.77 89.44L610.34 89.64L610.9 89.85L611.47 90.07L612.02 90.31L612.57 90.56L613.12 90.83L613.66 91.1L614.2 91.39L614.73 91.69L615.25 92.01L615.77 92.33L616.28 92.67L616.79 93.02L617.28 93.39L617.77 93.76L631.95 104.87L632.73 105.51L633.47 106.17L634.18 106.86L634.85 107.58L635.49 108.31L636.09 109.07L636.65 109.85L637.18 110.65L637.67 111.46L638.12 112.29L638.54 113.14L638.92 114L639.27 114.87L639.57 115.75L639.85 116.65L640.08 117.55L640.28 118.46L640.44 119.38L640.56 120.3L640.64 121.23L640.69 122.15L640.7 123.08L640.67 124.01L640.61 124.94L640.51 125.87L640.37 126.79L640.19 127.71L639.97 128.63L639.72 129.53L639.42 130.43L639.09 131.32L638.72 132.19L638.31 133.05L637.87 133.91L637.38 134.74L636.85 135.56L636.29 136.36L635.69 137.15L635.05 137.91L634.37 138.65L620.97 152.67L627.09 166.42L627.32 166.96L627.53 167.51L627.71 168.05L627.87 168.6L628.01 169.16L628.12 169.71L628.22 170.27L628.29 170.82L628.34 171.38L628.37 171.93L628.38 172.49L628.36 173.04L628.33 173.59L628.28 174.14L628.2 174.69L628.11 175.23L628 175.76L627.86 176.3L627.71 176.82L627.54 177.34L627.35 177.86L627.14 178.36L626.91 178.86L626.66 179.35L626.4 179.83L626.11 180.3L625.81 180.76L625.49 181.21L625.16 181.65L624.81 182.08L624.43 182.5L624.05 182.9L623.64 183.29L623.22 183.66L622.79 184.02L622.33 184.37L621.87 184.7L621.38 185.01L620.88 185.31L620.37 185.58L600.6 195.78L598.73 222.27L598.66 223.13L598.56 223.99L598.43 224.83L598.28 225.67L598.1 226.5L597.9 227.32L597.67 228.14L597.42 228.94L597.15 229.73L596.85 230.51L596.53 231.28L596.19 232.04L595.82 232.79L595.43 233.53L595.02 234.25L594.59 234.96L594.14 235.65L593.67 236.33L593.18 237L592.67 237.65L592.14 238.28L591.59 238.9L591.02 239.5L590.44 240.09L589.83 240.66L589.21 241.21L588.57 241.74L587.92 242.25L587.25 242.75L586.56 243.22L585.86 243.68L585.14 244.11L584.41 244.52L583.66 244.91L582.9 245.28L582.12 245.63L581.33 245.95L580.53 246.25L579.72 246.53L578.89 246.78L572.34 248.66L571.4 248.92L570.45 249.15L569.5 249.35L568.55 249.52L567.6 249.66L566.65 249.77L565.69 249.86L564.74 249.92L563.79 249.95L562.84 249.95L561.89 249.93L560.95 249.88L560 249.8L559.07 249.7L558.13 249.57L557.2 249.41L556.28 249.23L555.36 249.02L554.45 248.78L553.55 248.52L552.65 248.24L551.77 247.92L550.89 247.59L550.02 247.23L549.16 246.84L548.31 246.43L547.47 245.99L546.65 245.53L545.84 245.05L545.04 244.54L544.25 244.01L543.48 243.45L542.72 242.88L541.97 242.27L541.25 241.65L540.53 241L539.84 240.33L539.16 239.64L538.5 238.92L537.86 238.18L527.75 226.19L519.62 236.57L519.45 236.78L519.28 236.98L519.11 237.18L518.93 237.37L518.75 237.56L518.57 237.75L518.38 237.93L518.19 238.11L517.99 238.29L517.79 238.46L517.59 238.62L517.39 238.79L517.18 238.94L516.97 239.1L516.76 239.25L516.54 239.39L516.32 239.53L516.1 239.67L515.88 239.8L515.65 239.93L515.42 240.05L515.19 240.17L514.96 240.28L514.72 240.39L514.48 240.49L514.24 240.59L514 240.68L513.75 240.77L513.51 240.86L513.26 240.94L513.01 241.01L512.76 241.08L512.5 241.14L512.25 241.2L511.99 241.26L511.73 241.3L511.47 241.35L511.21 241.39L510.95 241.42L510.69 241.45L506.73 241.82L505.84 241.89L504.95 241.94L504.07 241.96L503.19 241.96L502.31 241.93L501.43 241.88L500.56 241.8L499.69 241.7L498.83 241.57L497.97 241.43L497.12 241.26L496.28 241.06L495.44 240.85L494.61 240.61L493.78 240.35L492.97 240.06L492.16 239.76L491.37 239.43L490.58 239.08L489.8 238.71L489.03 238.32L488.28 237.91L487.53 237.48L486.8 237.03L486.07 236.55L485.37 236.06L484.67 235.55L483.99 235.02L483.32 234.47L482.66 233.9L482.02 233.31L481.4 232.7L480.79 232.07L480.2 231.43L479.62 230.77L479.06 230.09L478.52 229.39L478 228.68L477.49 227.95L477.01 227.2L471.62 218.66L465.93 222.45L465.42 222.78L464.9 223.08L464.38 223.37L463.85 223.64L463.31 223.89L462.77 224.12L462.22 224.34L461.67 224.53L461.11 224.7L460.55 224.86L459.99 225L459.42 225.11L458.85 225.21L458.28 225.29L457.71 225.36L457.13 225.4L456.56 225.42L455.98 225.43L455.41 225.42L454.83 225.39L454.26 225.34L453.69 225.27L453.12 225.18L452.55 225.08L451.99 224.95L451.43 224.81L450.88 224.65L450.33 224.47L449.78 224.28L449.24 224.06L448.71 223.83L448.18 223.58L447.66 223.31L447.15 223.02L446.64 222.72L446.15 222.4L445.66 222.06L445.18 221.7L444.71 221.32L444.26 220.93L439.09 216.33L439.01 216.29L438.41 216.02L437.82 215.74L437.24 215.44L436.66 215.12L436.08 214.8L435.52 214.46L434.96 214.11L434.4 213.74L433.86 213.36L433.32 212.97L433.09 212.79L420.56 215.16L419.68 215.31L418.8 215.43L417.92 215.53L417.04 215.6L416.17 215.64L415.29 215.65L414.42 215.63L413.56 215.59L412.69 215.52L411.83 215.43L410.98 215.31L410.13 215.16L409.29 214.99L408.46 214.79L407.63 214.57L406.81 214.32L406 214.05L405.2 213.75L404.41 213.43L403.63 213.08L402.86 212.71L402.1 212.32L401.35 211.91L400.62 211.47L399.9 211.01L399.19 210.53L398.49 210.02L397.82 209.5L397.15 208.95L396.5 208.38L395.87 207.79L395.26 207.18L394.66 206.55L394.08 205.9L393.52 205.23L392.98 204.54L392.46 203.83L391.96 203.1L391.48 202.35L391.03 201.59L385.09 191.27L384.81 190.77L384.55 190.27L384.31 189.75L384.08 189.24L383.88 188.72L383.69 188.19L383.52 187.66L383.36 187.13L383.22 186.59L383.1 186.05L383 185.51L382.91 184.97L382.85 184.42L382.8 183.88L382.76 183.33L382.74 182.78L382.74 182.24L382.76 181.69L382.79 181.15L382.84 180.6L382.91 180.06L383 179.52L383.1 178.99L383.21 178.45L383.35 177.92L383.5 177.4L383.67 176.87L383.85 176.36L384.05 175.85L384.27 175.34L384.5 174.84L384.75 174.34L385.01 173.86L385.29 173.38L385.59 172.9L385.91 172.44L386.24 171.98L386.58 171.53L386.94 171.1L387.32 170.67L392.82 164.63L386.43 157.06L385.94 156.45L385.47 155.83L385.02 155.2L384.59 154.56L384.19 153.9L383.8 153.24L383.45 152.57L383.11 151.89L382.8 151.19L382.51 150.5L382.25 149.79L382 149.08L381.79 148.36L381.59 147.64L381.42 146.91L381.27 146.17L381.14 145.44L381.04 144.7L380.96 143.96L380.9 143.21L380.87 142.47L380.86 141.72L380.88 140.97L380.92 140.23L380.98 139.48L381.06 138.74L381.17 137.99L381.31 137.26L381.46 136.52L381.64 135.79L381.85 135.06L382.08 134.34L382.33 133.62L382.6 132.91L382.9 132.21L383.23 131.51L383.57 130.82L383.95 130.14L384.34 129.47L384.74 128.85L384.83 128.71L384.97 128.51L385.11 128.32L385.26 128.13L385.41 127.94L385.56 127.76L385.71 127.58L385.87 127.4L386.04 127.22L386.2 127.05L386.37 126.89L386.54 126.72L386.72 126.56L386.9 126.41L387.08 126.25L387.26 126.1L387.45 125.96L387.64 125.82L387.83 125.68L388.03 125.54L388.22 125.41L388.42 125.28L388.63 125.16L388.83 125.04L389.04 124.93L389.25 124.82L389.46 124.71L389.67 124.61L389.89 124.51L390.11 124.42L390.33 124.33L390.55 124.24L390.78 124.16L391 124.08L391.23 124.01L391.46 123.94L391.69 123.88L391.92 123.82L392.16 123.76L392.39 123.71L403.97 121.37L398.66 112.81L398.22 112.08L397.81 111.34L397.43 110.58L397.08 109.82L396.75 109.05L396.45 108.28L396.18 107.49L395.94 106.7L395.72 105.91L395.53 105.11L395.37 104.31L395.23 103.5L395.13 102.69L395.05 101.88L394.99 101.07L394.97 100.26L394.97 99.45L394.99 98.64L395.05 97.83L395.13 97.02L395.23 96.22L395.36 95.42L395.52 94.62L395.71 93.83L395.92 93.05L396.16 92.27L396.42 91.5L396.71 90.74L397.02 89.98L397.36 89.24L397.73 88.5L398.12 87.78L398.54 87.06L398.98 86.36L399.45 85.67L399.94 85L400.46 84.34L401.01 83.69L401.57 83.06L402.17 82.45L403.16 81.46L403.74 80.89L404.33 80.35L404.93 79.83L405.54 79.32L406.17 78.83L406.81 78.36L407.46 77.91L408.12 77.47L408.79 77.06L409.46 76.66L410.15 76.29L410.85 75.93L411.55 75.59L412.27 75.27L412.99 74.98L413.72 74.7L414.45 74.44L415.19 74.2L415.94 73.97L416.69 73.77L417.45 73.59L418.21 73.43L418.98 73.29L419.75 73.17L420.52 73.07L421.3 73L422.07 72.94L422.86 72.9L423.64 72.88L424.42 72.89L425.21 72.92L425.99 72.96L426.78 73.03L427.56 73.12L428.35 73.23L429.13 73.37L429.91 73.52L430.69 73.7L431.47 73.89L432.25 74.12L454.01 80.64L452.05 70.94L470.31 58.78L470.86 58.42L471.42 58.09L471.99 57.78L472.56 57.49L473.14 57.22L473.73 56.97L474.32 56.74L474.92 56.53L475.52 56.34L476.13 56.17L476.74 56.02L477.35 55.89L477.97 55.79L478.59 55.7L479.21 55.63L479.83 55.59L480.45 55.56L481.07 55.55L481.7 55.57L482.32 55.6ZM384.7 128.91L384.76 128.81L384.74 128.85L384.7 128.91Z" id="kIgrBOVcD"></path></defs><g><g><use xlink:href="#kIgrBOVcD" opacity="1" fill="#ffffff" fill-opacity="1"></use><g><use xlink:href="#kIgrBOVcD" opacity="1" fill-opacity="0" stroke="#dee9fe" stroke-width="0" stroke-opacity="1"></use></g></g></g></svg>