<?xml version="1.0" encoding="UTF-8" standalone="no"?>
<!DOCTYPE svg PUBLIC "-//W3C//DTD SVG 1.1//EN" "http://www.w3.org/Graphics/SVG/1.1/DTD/svg11.dtd">
<svg version="1.1" xmlns="http://www.w3.org/2000/svg" xmlns:xlink="http://www.w3.org/1999/xlink" preserveAspectRatio="xMidYMid meet" viewBox="110.9704079625034 46.360988021249995 260 259.5200000000001" width="256" height="255.52"><defs><path d="M146.53 192.57L111.97 176.88L146.04 157.1L146.53 192.57Z" id="j1vOKDFVge"></path><path d="M239.97 81.72L222.24 81.53L238.76 47.36L239.97 49.57L239.97 81.72Z" id="eA6OqezN1"></path><path d="M176.55 104.03L173.64 66.19L207.39 86.5L176.55 104.03Z" id="c5J9w1C8k8"></path><path d="M167 236.84L129.25 240.67L148.74 206.43L167 236.84Z" id="d4rD7x2Xq2"></path><path d="M150.12 140.68L129.25 108.98L168.62 110.41L150.12 140.68Z" id="gcYQYuQmU"></path><path d="M206.66 262.61L175.48 284.24L175.96 244.85L206.66 262.61Z" id="ab2Lkl52G"></path><path d="M314.3 164.28L290.75 150.68L255.79 170.86L292.35 191.97L319.01 176.57L326.08 188.81L306.48 200.13L319.45 207.62L312.39 219.86L300.4 212.93L300.4 233.3L286.27 233.3L286.27 204.77L248.73 183.1L248.73 230.24L275.78 245.86L268.72 258.09L248.73 246.55L248.73 260.59L239.97 260.59L239.97 89.08L248.73 89.08L248.73 101.94L265.97 91.99L273.04 104.22L248.73 118.26L248.73 158.62L281.56 139.67L281.56 107.56L295.69 107.56L295.69 131.51L312.39 121.87L319.45 134.1L304.87 142.52L321.37 152.04L321.37 152.04L314.3 164.28Z" id="cZnyDIPI"></path><path d="M234.17 260.52L230.68 260.3L227.22 259.95L223.81 259.47L220.44 258.85L217.11 258.1L213.84 257.22L210.62 256.21L207.45 255.09L204.34 253.85L201.3 252.49L198.32 251.01L195.4 249.43L192.55 247.73L189.78 245.94L187.08 244.03L184.46 242.03L181.92 239.94L179.46 237.74L177.09 235.46L174.81 233.09L172.61 230.63L170.52 228.09L168.52 225.47L166.61 222.77L164.82 219.99L163.12 217.15L161.54 214.23L160.07 211.25L158.71 208.2L157.46 205.09L156.34 201.93L155.33 198.71L154.46 195.43L153.71 192.11L153.09 188.74L152.6 185.32L152.25 181.86L152.03 178.37L151.96 174.84L152.03 171.3L152.25 167.81L152.6 164.35L153.09 160.93L153.71 157.56L154.46 154.24L155.33 150.96L156.34 147.74L157.46 144.58L158.71 141.47L160.07 138.42L161.54 135.44L163.12 132.52L164.82 129.68L166.61 126.9L168.52 124.2L170.52 121.58L172.61 119.04L174.81 116.58L177.09 114.21L179.46 111.93L181.92 109.73L184.46 107.64L187.08 105.64L189.78 103.74L192.55 101.94L195.4 100.24L198.32 98.66L201.3 97.19L204.34 95.82L207.45 94.58L210.62 93.46L213.84 92.45L217.11 91.58L220.44 90.82L223.81 90.2L227.22 89.72L230.68 89.37L234.17 89.15L237.71 89.08L239.97 89.13L239.97 260.54L237.71 260.59L237.71 260.59L234.17 260.52Z" id="cfYOAYY72"></path><mask id="maska3GOgbMXV1" x="151.96" y="89.08" width="88.01" height="171.51" maskUnits="userSpaceOnUse"><rect x="151.96" y="89.08" width="88.01" height="171.51" fill="white"></rect><use xlink:href="#cfYOAYY72" opacity="1" fill="black"></use></mask><path d="M238.76 302.88L222.24 268.71L239.97 268.52L239.97 300.67L238.76 302.88Z" id="bhR3QFO5E"></path><path d="M333.42 192.57L367.97 176.88L333.9 157.1L333.42 192.57Z" id="c11kpbQtKq"></path><path d="M239.97 81.72L239.97 49.57L241.18 47.36L257.7 81.53L239.97 81.72Z" id="a3cwpRRjJN"></path><path d="M303.39 104.03L306.3 66.19L272.55 86.5L303.39 104.03Z" id="g2OEXouvLg"></path><path d="M312.94 236.84L350.69 240.67L331.2 206.43L312.94 236.84Z" id="g2G7X9WTAP"></path><path d="M329.82 140.68L350.69 108.98L311.32 110.41L329.82 140.68Z" id="b9ESE0BioE"></path><path d="M273.28 262.61L304.46 284.24L303.99 244.85L273.28 262.61Z" id="aeYL94bM"></path><path d="M241.18 302.88L239.97 300.67L239.97 268.52L257.7 268.71L241.18 302.88Z" id="a1NruWrBl0"></path></defs><g><g><use xlink:href="#j1vOKDFVge" opacity="1" fill="#ffcb00" fill-opacity="1"></use><g><use xlink:href="#j1vOKDFVge" opacity="1" fill-opacity="0" stroke="#000000" stroke-width="0" stroke-opacity="1"></use></g></g><g><use xlink:href="#eA6OqezN1" opacity="1" fill="#ffcb00" fill-opacity="1"></use><g><use xlink:href="#eA6OqezN1" opacity="1" fill-opacity="0" stroke="#000000" stroke-width="0" stroke-opacity="1"></use></g></g><g><use xlink:href="#c5J9w1C8k8" opacity="1" fill="#ffcb00" fill-opacity="1"></use><g><use xlink:href="#c5J9w1C8k8" opacity="1" fill-opacity="0" stroke="#000000" stroke-width="0" stroke-opacity="1"></use></g></g><g><use xlink:href="#d4rD7x2Xq2" opacity="1" fill="#ffcb00" fill-opacity="1"></use><g><use xlink:href="#d4rD7x2Xq2" opacity="1" fill-opacity="0" stroke="#000000" stroke-width="0" stroke-opacity="1"></use></g></g><g><use xlink:href="#gcYQYuQmU" opacity="1" fill="#ffcb00" fill-opacity="1"></use><g><use xlink:href="#gcYQYuQmU" opacity="1" fill-opacity="0" stroke="#000000" stroke-width="0" stroke-opacity="1"></use></g></g><g><use xlink:href="#ab2Lkl52G" opacity="1" fill="#ffcb00" fill-opacity="1"></use><g><use xlink:href="#ab2Lkl52G" opacity="1" fill-opacity="0" stroke="#000000" stroke-width="0" stroke-opacity="1"></use></g></g><g><use xlink:href="#cZnyDIPI" opacity="1" fill="#009ff6" fill-opacity="1"></use></g><g><use xlink:href="#cfYOAYY72" opacity="1" fill="#ffcb00" fill-opacity="1"></use><g mask="url(#maska3GOgbMXV1)"><use xlink:href="#cfYOAYY72" opacity="1" fill-opacity="0" stroke="#000000" stroke-width="0" stroke-opacity="1"></use></g></g><g><use xlink:href="#bhR3QFO5E" opacity="1" fill="#ffcb00" fill-opacity="1"></use><g><use xlink:href="#bhR3QFO5E" opacity="1" fill-opacity="0" stroke="#000000" stroke-width="0" stroke-opacity="1"></use></g></g><g><use xlink:href="#c11kpbQtKq" opacity="1" fill="#009ff6" fill-opacity="1"></use><g><use xlink:href="#c11kpbQtKq" opacity="1" fill-opacity="0" stroke="#000000" stroke-width="0" stroke-opacity="1"></use></g></g><g><use xlink:href="#a3cwpRRjJN" opacity="1" fill="#009ff6" fill-opacity="1"></use><g><use xlink:href="#a3cwpRRjJN" opacity="1" fill-opacity="0" stroke="#000000" stroke-width="0" stroke-opacity="1"></use></g></g><g><use xlink:href="#g2OEXouvLg" opacity="1" fill="#009ff6" fill-opacity="1"></use><g><use xlink:href="#g2OEXouvLg" opacity="1" fill-opacity="0" stroke="#000000" stroke-width="0" stroke-opacity="1"></use></g></g><g><use xlink:href="#g2G7X9WTAP" opacity="1" fill="#009ff6" fill-opacity="1"></use><g><use xlink:href="#g2G7X9WTAP" opacity="1" fill-opacity="0" stroke="#000000" stroke-width="0" stroke-opacity="1"></use></g></g><g><use xlink:href="#b9ESE0BioE" opacity="1" fill="#009ff6" fill-opacity="1"></use><g><use xlink:href="#b9ESE0BioE" opacity="1" fill-opacity="0" stroke="#000000" stroke-width="0" stroke-opacity="1"></use></g></g><g><use xlink:href="#aeYL94bM" opacity="1" fill="#009ff6" fill-opacity="1"></use><g><use xlink:href="#aeYL94bM" opacity="1" fill-opacity="0" stroke="#000000" stroke-width="0" stroke-opacity="1"></use></g></g><g><use xlink:href="#a1NruWrBl0" opacity="1" fill="#009ff6" fill-opacity="1"></use><g><use xlink:href="#a1NruWrBl0" opacity="1" fill-opacity="0" stroke="#000000" stroke-width="0" stroke-opacity="1"></use></g></g></g></svg>